M48
; DRILL file {KiCad 7.0.5-4d25ed1034~172~ubuntu22.04.1} date Wed 31 May 2023 11:12:11 AM EDT
; FORMAT={-:-/ absolute / inch / decimal}
; #@! TF.CreationDate,2023-05-31T11:12:11-04:00
; #@! TF.GenerationSoftware,Kicad,Pcbnew,7.0.5-4d25ed1034~172~ubuntu22.04.1
; #@! TF.FileFunction,Plated,1,2,PTH
FMAT,2
INCH
; #@! TA.AperFunction,Plated,PTH,ViaDrill
T1C0.0160
; #@! TA.AperFunction,Plated,PTH,ComponentDrill
T2C0.0276
; #@! TA.AperFunction,Plated,PTH,ComponentDrill
T3C0.0295
; #@! TA.AperFunction,Plated,PTH,ComponentDrill
T4C0.0315
; #@! TA.AperFunction,Plated,PTH,ComponentDrill
T5C0.0354
; #@! TA.AperFunction,Plated,PTH,ComponentDrill
T6C0.0394
; #@! TA.AperFunction,Plated,PTH,ComponentDrill
T7C0.0400
; #@! TA.AperFunction,Plated,PTH,ComponentDrill
T8C0.0433
; #@! TA.AperFunction,Plated,PTH,ComponentDrill
T9C0.0550
; #@! TA.AperFunction,Plated,PTH,ComponentDrill
T10C0.0591
; #@! TA.AperFunction,Plated,PTH,ComponentDrill
T11C0.1000
; #@! TA.AperFunction,Plated,PTH,ComponentDrill
T12C0.1063
%
G90
G05
T1
X6.085Y-2.13
X6.205Y-4.2
X6.355Y-2.4
X6.425Y-3.81
X6.425Y-4.315
X6.58Y-2.825
X6.705Y-3.525
X7.005Y-3.7
X7.205Y-2.975
X7.355Y-3.45
X7.355Y-4.45
X7.38Y-2.5
X7.38Y-3.1
X7.435Y-3.81
X7.435Y-3.94
X7.505Y-3.3
X7.505Y-4.15
X7.555Y-3.675
X7.555Y-4.2
X7.655Y-3.35
X7.655Y-3.525
X7.68Y-2.75
X7.73Y-2.71
X7.75Y-3.05
X7.755Y-3.7034
X7.855Y-3.45
X7.975Y-3.425
X8.025Y-2.915
X8.025Y-2.975
X8.055Y-3.675
X8.105Y-2.925
X8.155Y-3.935
X8.155Y-3.25
X8.205Y-3.05
X8.23Y-3.525
X8.28Y-3.575
X8.355Y-3.3
X8.5Y-3.425
X8.875Y-3.075
X9.455Y-3.675
X9.48Y-2.525
X9.48Y-2.9
X9.53Y-2.975
X9.53Y-3.35
X9.605Y-4.15
X9.78Y-3.25
X9.855Y-3.725
T2
X6.3771Y-2.225
X6.633Y-2.225
T3
X7.63Y-2.8642
X7.68Y-2.8642
X7.73Y-2.8642
T4
X6.355Y-2.675
X6.355Y-3.075
X6.355Y-4.0
X6.355Y-4.4
X6.805Y-3.975
X6.805Y-4.375
X7.005Y-2.675
X7.005Y-3.075
X7.005Y-3.975
X7.005Y-4.375
X7.205Y-2.675
X7.205Y-3.075
X7.205Y-3.975
X7.205Y-4.375
X7.6552Y-3.1748
X7.6552Y-3.7748
X7.7552Y-3.1748
X7.7552Y-3.7748
X7.8552Y-3.1748
X7.8552Y-3.7748
X7.9552Y-3.1748
X7.9552Y-3.7748
X8.0552Y-3.1748
X8.0552Y-3.7748
X8.1552Y-3.1748
X8.1552Y-3.7748
X8.2552Y-3.1748
X8.2552Y-3.7748
X8.3552Y-3.1748
X8.3552Y-3.7748
X8.4552Y-3.1748
X8.4552Y-3.7748
X8.5552Y-3.1748
X8.5552Y-3.7748
X8.6552Y-3.1748
X8.6552Y-3.7748
X8.7552Y-3.1748
X8.7552Y-3.7748
T5
X3.25Y-2.55
X3.25Y-2.65
X3.25Y-4.3
X3.25Y-4.4
X9.705Y-2.425
X9.705Y-2.525
X9.705Y-4.4
X9.705Y-4.5
T6
X7.07Y-2.1848
X7.07Y-2.2848
X8.34Y-3.0
X8.44Y-3.0
X8.54Y-3.0
X8.64Y-3.0
X8.74Y-3.0
X8.84Y-3.0
X9.655Y-2.9
X9.655Y-3.0
X9.655Y-3.1
X9.655Y-3.85
X9.655Y-3.95
X9.655Y-4.05
T7
X9.497Y-4.729
X9.572Y-4.775
X9.572Y-4.875
X9.788Y-4.775
X9.788Y-4.875
T8
X6.58Y-2.675
X6.58Y-3.075
X6.58Y-4.0
X6.58Y-4.4
X6.805Y-2.675
X6.805Y-3.075
X7.205Y-3.425
X7.205Y-3.525
X7.205Y-3.625
T9
X5.88Y-2.725
X6.08Y-2.725
X9.11Y-2.975
X9.31Y-2.975
T10
X5.875Y-4.455
X5.975Y-4.205
T11
X9.68Y-4.75
X9.68Y-4.9
T12
X5.755Y-2.1149
X5.755Y-4.8149
X9.205Y-3.4649
T0
M30
