%TF.GenerationSoftware,KiCad,Pcbnew,7.0.5-4d25ed1034~172~ubuntu22.04.1*%
%TF.CreationDate,2023-05-31T11:12:09-04:00*%
%TF.ProjectId,car_control,6361725f-636f-46e7-9472-6f6c2e6b6963,rev?*%
%TF.SameCoordinates,Original*%
%TF.FileFunction,Profile,NP*%
%FSLAX46Y46*%
G04 Gerber Fmt 4.6, Leading zero omitted, Abs format (unit mm)*
G04 Created by KiCad (PCBNEW 7.0.5-4d25ed1034~172~ubuntu22.04.1) date 2023-05-31 11:12:09*
%MOMM*%
%LPD*%
G01*
G04 APERTURE LIST*
%TA.AperFunction,Profile*%
%ADD10C,0.200000*%
%TD*%
G04 APERTURE END LIST*
D10*
X252222000Y-122935999D02*
X252222000Y-53086000D01*
X142367000Y-102311200D02*
X156218371Y-102311200D01*
X239522000Y-104142000D02*
X239522000Y-126111000D01*
X85216998Y-126111000D02*
X180467000Y-126111000D01*
X202436000Y-104142000D02*
X239522000Y-104142000D01*
X85217000Y-59436000D02*
X142367000Y-59436000D01*
X142367000Y-73710800D02*
X156218371Y-73710800D01*
X202436000Y-71880000D02*
X239522000Y-71880000D01*
X239522000Y-49911000D02*
X249047002Y-49911000D01*
X85217000Y-104142000D02*
X85217000Y-59436000D01*
X85217000Y-49911000D02*
G75*
G03*
X72517000Y-62611000I0J-12700000D01*
G01*
X249047000Y-126111000D02*
G75*
G03*
X252222000Y-122936000I0J3175000D01*
G01*
X252222000Y-53086000D02*
G75*
G03*
X249047000Y-49911000I-3175000J0D01*
G01*
X142367000Y-59436000D02*
X142367000Y-73710800D01*
X142367000Y-102311200D02*
X142367000Y-116586000D01*
X239522000Y-126111000D02*
X249047000Y-126111000D01*
X180467000Y-49911000D02*
X85217002Y-49911000D01*
X72517000Y-113411000D02*
G75*
G03*
X85217002Y-126111000I12700000J0D01*
G01*
X180467000Y-49911000D02*
X202436000Y-71880000D01*
X85217000Y-116586000D02*
X142367000Y-116586000D01*
X85217000Y-116586000D02*
X85217000Y-104142000D01*
X156218371Y-102311200D02*
X156218371Y-73710800D01*
X72517000Y-62611000D02*
X72517000Y-113411000D01*
X239522000Y-49911000D02*
X239522000Y-71880000D01*
X180467000Y-126111000D02*
X202436000Y-104142000D01*
M02*
